<svg xmlns="http://www.w3.org/2000/svg" width="108" height="108" fill="none"><rect width="108" height="108" fill="#CAF3E5" rx="24"/><path fill="#70908B" d="M54 20.09c-16.434 0-29.804 13.37-29.804 29.804v16.16a5.968 5.968 0 0 0 5.96 5.961h2.33a5.97 5.97 0 0 0 5.618 3.974 5.968 5.968 0 0 0 5.961-5.961v-16.16a5.968 5.968 0 0 0-5.96-5.961 5.97 5.97 0 0 0-5.62 3.974h-2.328c-.697 0-1.365.12-1.987.341v-2.328c0-14.243 11.587-25.83 25.83-25.83 14.243 0 25.83 11.587 25.83 25.83v2.328a5.932 5.932 0 0 0-1.987-.342h-2.328a5.97 5.97 0 0 0-5.62-3.973 5.968 5.968 0 0 0-5.96 5.96v16.161a5.968 5.968 0 0 0 5.96 5.96 5.94 5.94 0 0 0 1.73-.256 5.971 5.971 0 0 1-5.703 4.23h-6.303A5.97 5.97 0 0 0 54 75.99a5.968 5.968 0 0 0-5.96 5.96A5.968 5.968 0 0 0 54 87.912a5.97 5.97 0 0 0 5.62-3.974h6.302c5.478 0 9.934-4.457 9.934-9.935v-1.987h1.987a5.968 5.968 0 0 0 5.961-5.96V49.893c0-16.434-13.37-29.805-29.804-29.805ZM36.117 53.866a1.99 1.99 0 0 1 1.987-1.986 1.99 1.99 0 0 1 1.987 1.986v16.161a1.99 1.99 0 0 1-1.987 1.987 1.99 1.99 0 0 1-1.986-1.987v-16.16Zm-5.96 1.987h1.987v12.187h-1.987a1.99 1.99 0 0 1-1.987-1.987v-8.213a1.99 1.99 0 0 1 1.987-1.987ZM54 83.937a1.99 1.99 0 0 1-1.987-1.987A1.99 1.99 0 0 1 54 79.963a1.99 1.99 0 0 1 1.987 1.987A1.99 1.99 0 0 1 54 83.937Zm17.883-13.909a1.99 1.99 0 0 1-1.987 1.987 1.99 1.99 0 0 1-1.987-1.987v-16.16a1.99 1.99 0 0 1 1.987-1.988 1.99 1.99 0 0 1 1.987 1.987v16.161Zm7.947-3.974a1.99 1.99 0 0 1-1.987 1.987h-1.987V55.854h1.987a1.99 1.99 0 0 1 1.987 1.987v8.213Z"/></svg>