<svg xmlns="http://www.w3.org/2000/svg" width="249" height="40" fill="none"><path fill="#FFC107" d="m37.86 13.777-11.729-1.785L20.888.862a1.507 1.507 0 0 0-.67-.702c-.73-.378-1.616-.063-1.981.701l-5.243 11.13-11.73 1.786a1.453 1.453 0 0 0-.845.45A1.59 1.59 0 0 0 0 15.328c.005.411.166.803.447 1.09l8.486 8.664-2.005 12.234c-.047.284-.017.577.087.845.104.267.277.499.5.669a1.421 1.421 0 0 0 1.556.116l10.492-5.776 10.49 5.776c.287.16.62.213.938.155.804-.145 1.344-.944 1.206-1.785l-2.005-12.234 8.486-8.664c.23-.237.383-.546.43-.885.124-.847-.44-1.63-1.248-1.756ZM91.212 13.777l-11.729-1.785L74.24.862a1.506 1.506 0 0 0-.67-.702c-.73-.378-1.616-.063-1.981.701l-5.243 11.131-11.73 1.785a1.453 1.453 0 0 0-.845.45 1.59 1.59 0 0 0-.419 1.101c.005.411.166.803.447 1.09l8.486 8.664-2.005 12.234c-.047.284-.017.577.087.845.104.267.277.499.5.669a1.421 1.421 0 0 0 1.556.116l10.491-5.776 10.491 5.776c.287.16.62.213.938.155.804-.145 1.344-.944 1.206-1.785l-2.005-12.234 8.486-8.664c.23-.237.383-.546.43-.885.124-.847-.44-1.63-1.248-1.756ZM141.007 13.777l-11.729-1.785-5.243-11.13a1.506 1.506 0 0 0-.67-.702c-.729-.378-1.616-.063-1.981.701l-5.243 11.131-11.729 1.785a1.455 1.455 0 0 0-.846.45c-.273.294-.424.69-.419 1.101.005.411.166.803.447 1.09l8.486 8.664-2.005 12.234a1.61 1.61 0 0 0 .087.845c.104.267.277.499.5.669a1.421 1.421 0 0 0 1.557.116l10.49-5.776 10.491 5.776c.287.16.619.213.938.155.804-.145 1.344-.944 1.206-1.785l-2.005-12.234 8.486-8.664a1.57 1.57 0 0 0 .429-.885c.125-.847-.438-1.63-1.247-1.756ZM194.359 13.777l-11.729-1.785-5.243-11.13a1.506 1.506 0 0 0-.67-.702c-.73-.378-1.616-.063-1.981.701l-5.244 11.131-11.728 1.785a1.455 1.455 0 0 0-.846.45c-.273.294-.424.69-.419 1.101.005.411.166.803.447 1.09l8.486 8.664-2.005 12.234a1.61 1.61 0 0 0 .087.845c.104.267.277.499.5.669a1.423 1.423 0 0 0 1.557.116l10.49-5.776 10.491 5.776c.287.16.619.213.938.155.804-.145 1.344-.944 1.206-1.785l-2.005-12.234 8.486-8.664a1.57 1.57 0 0 0 .429-.885c.125-.847-.439-1.63-1.247-1.756ZM247.711 13.777l-11.729-1.785-5.243-11.13a1.506 1.506 0 0 0-.67-.702c-.73-.378-1.617-.063-1.982.701l-5.243 11.131-11.728 1.785a1.455 1.455 0 0 0-.846.45c-.273.294-.424.69-.419 1.101.005.411.166.803.447 1.09l8.486 8.664-2.005 12.234a1.61 1.61 0 0 0 .087.845c.104.267.277.499.5.669a1.42 1.42 0 0 0 1.556.116l10.491-5.776 10.491 5.776c.287.16.619.213.938.155.804-.145 1.344-.944 1.206-1.785l-2.005-12.234 8.486-8.664a1.57 1.57 0 0 0 .429-.885c.125-.847-.439-1.63-1.247-1.756Z"/></svg>