<svg xmlns="http://www.w3.org/2000/svg" width="162" height="122" fill="none"><path fill="#E0EFF6" d="M92.195 121.005h66.264a2.89 2.89 0 0 0 2.882-2.881V51.859a2.89 2.89 0 0 0-2.882-2.88h-37.454v-2.882c0-14.29 11.64-25.93 25.93-25.93h11.524a2.89 2.89 0 0 0 2.882-2.88V2.88A2.89 2.89 0 0 0 158.459 0h-17.286c-28.609 0-51.86 23.28-51.86 51.86v66.264a2.89 2.89 0 0 0 2.882 2.881ZM2.881 121.005h66.265a2.89 2.89 0 0 0 2.881-2.881V51.859a2.89 2.89 0 0 0-2.881-2.88H31.692v-2.882c0-14.29 11.64-25.93 25.93-25.93h11.524a2.89 2.89 0 0 0 2.881-2.88V2.88A2.89 2.89 0 0 0 69.146 0H51.859C23.25 0 0 23.28 0 51.86v66.264a2.89 2.89 0 0 0 2.881 2.881Z"/></svg>